<?xml version="1.0" encoding="UTF-8" standalone="no"?>
<!DOCTYPE svg PUBLIC "-//W3C//DTD SVG 1.1//EN" "http://www.w3.org/Graphics/SVG/1.1/DTD/svg11.dtd">
<svg xmlns="http://www.w3.org/2000/svg" version="1.1" viewBox="0.00 0.00 360.00 360.00">
<path fill="#000000" d="
  M 52.22 0.00
  L 53.06 0.00
  L 57.17 0.20
  Q 57.68 0.22 58.14 0.44
  Q 63.55 2.94 69.37 8.38
  C 106.99 43.56 142.82 80.78 179.27 117.14
  A 0.88 0.88 0.0 0 0 180.51 117.14
  C 211.35 86.24 242.94 55.78 273.09 24.19
  C 282.37 14.47 290.86 5.29 304.14 1.18
  Q 307.15 0.25 309.52 1.04
  C 314.08 2.57 319.40 7.01 322.18 10.07
  Q 333.75 22.75 346.27 34.48
  C 353.35 41.11 356.32 44.46 360.00 52.77
  L 360.00 53.56
  Q 358.34 56.19 358.45 59.14
  Q 358.47 59.64 358.25 60.08
  C 357.30 61.96 356.29 63.92 354.83 65.51
  C 318.87 104.80 280.21 141.87 242.45 179.42
  A 0.66 0.66 0.0 0 0 242.45 180.36
  C 272.95 210.81 303.37 240.72 332.94 271.20
  C 342.81 281.38 363.10 295.68 357.96 312.11
  Q 357.22 314.46 355.01 316.65
  Q 336.52 334.97 318.31 353.55
  Q 314.61 357.32 308.44 359.55
  Q 307.97 359.72 307.50 359.58
  C 302.59 358.15 298.02 358.86 294.06 355.19
  C 255.85 319.73 218.12 280.42 180.43 242.76
  A 0.77 0.76 44.7 0 0 179.34 242.76
  C 152.77 269.39 126.26 296.23 99.30 322.62
  C 88.20 333.49 77.21 348.16 62.37 356.15
  C 59.02 357.96 54.93 358.88 51.19 360.00
  L 50.56 360.00
  Q 42.55 355.14 40.52 352.98
  Q 24.25 335.75 7.04 319.47
  Q 3.35 315.98 0.00 308.26
  L 0.00 306.44
  Q 0.33 299.52 4.42 294.93
  C 14.20 283.97 27.55 270.07 39.76 257.86
  Q 78.48 219.18 117.12 180.75
  A 0.89 0.89 0.0 0 0 117.12 179.49
  C 92.54 154.93 67.61 130.51 43.40 105.46
  Q 27.07 88.57 19.36 81.90
  Q 8.78 72.74 2.45 59.32
  Q -1.16 51.67 3.44 45.22
  C 8.88 37.59 18.64 29.79 24.17 24.09
  C 32.50 15.51 40.48 4.38 52.22 0.00
  Z"
/>
</svg>
